# Blender 4.0.2
# www.blender.org
mtllib floor.mtl
o 立方体
v -4.825404 -0.113331 3.622630
v -4.825404 -0.013331 3.622630
v -4.825404 -0.113331 -3.177371
v -4.825404 -0.013331 -3.177371
v 0.874596 -0.113331 3.622630
v 0.874596 -0.013331 3.622630
v 0.874596 -0.113331 -3.177371
v 0.874596 -0.013331 -3.177371
v -4.808950 -0.113043 3.603000
v -4.808950 -0.013620 3.603000
v -4.808950 -0.113043 -3.157741
v -4.808950 -0.013620 -3.157741
v 0.858141 -0.113043 3.603000
v 0.858141 -0.013620 3.603000
v 0.858141 -0.113043 -3.157741
v 0.858141 -0.013620 -3.157741
v -4.819631 -0.107557 3.616856
v -4.819631 -0.019104 3.616856
v -4.819631 -0.107558 -3.171597
v -4.819631 -0.019105 -3.171597
v 0.868823 -0.107557 3.616856
v 0.868823 -0.019104 3.616856
v 0.868823 -0.107558 -3.171597
v 0.868823 -0.019105 -3.171597
v -4.814723 -0.118816 3.608773
v -4.814723 -0.007846 3.608773
v -4.814723 -0.118817 -3.163515
v -4.814723 -0.007847 -3.163515
v 0.863914 -0.118816 3.608773
v 0.863914 -0.007846 3.608773
v 0.863914 -0.118817 -3.163515
v 0.863914 -0.007847 -3.163515
v -4.819631 -0.107557 3.616856
v -4.819631 -0.019104 3.616856
v -4.819631 -0.107558 -3.171597
v -4.819631 -0.019105 -3.171597
v 0.868823 -0.107557 3.616856
v 0.868823 -0.019104 3.616856
v 0.868823 -0.107558 -3.171597
v 0.868823 -0.019105 -3.171597
v -4.814723 -0.118816 3.608773
v -4.814723 -0.007846 3.608773
v -4.814723 -0.118817 -3.163515
v -4.814723 -0.007847 -3.163515
v 0.863914 -0.118816 3.608773
v 0.863914 -0.007846 3.608773
v 0.863914 -0.118817 -3.163515
v 0.863914 -0.007847 -3.163515
v -4.825405 -0.113330 3.622630
v -4.825405 -0.013330 3.622630
v -4.825405 -0.113332 -3.177371
v -4.825405 -0.013332 -3.177371
v 0.874596 -0.113330 3.622630
v 0.874596 -0.013330 3.622630
v 0.874596 -0.113332 -3.177371
v 0.874596 -0.013332 -3.177371
v -4.808949 -0.113042 3.602999
v -4.808949 -0.013619 3.602999
v -4.808949 -0.113044 -3.157742
v -4.808949 -0.013621 -3.157742
v 0.858141 -0.113042 3.602999
v 0.858141 -0.013619 3.602999
v 0.858141 -0.113044 -3.157742
v 0.858141 -0.013621 -3.157742
vn -1.0000 -0.0000 -0.0000
vn -0.0000 -0.0000 -1.0000
vn 1.0000 -0.0000 -0.0000
vn -0.0000 -0.0000 1.0000
vn -0.0000 -1.0000 -0.0000
vn -0.0000 1.0000 -0.0000
vt 0.375000 0.000000
vt 0.625000 0.000000
vt 0.625000 0.250000
vt 0.375000 0.250000
vt 0.625000 0.500000
vt 0.375000 0.500000
vt 0.625000 0.750000
vt 0.375000 0.750000
vt 0.625000 1.000000
vt 0.375000 1.000000
vt 0.125000 0.500000
vt 0.125000 0.750000
vt 0.875000 0.500000
vt 0.875000 0.750000
s 0
f 1/1/1 2/2/1 4/3/1 3/4/1
f 3/4/2 4/3/2 8/5/2 7/6/2
f 7/6/3 8/5/3 6/7/3 5/8/3
f 5/8/4 6/7/4 2/9/4 1/10/4
f 3/11/5 7/6/5 5/8/5 1/12/5
f 8/5/6 4/13/6 2/14/6 6/7/6
f 9/1/3 11/4/3 12/3/3 10/2/3
f 11/4/4 15/6/4 16/5/4 12/3/4
f 15/6/1 13/8/1 14/7/1 16/5/1
f 13/8/2 9/10/2 10/9/2 14/7/2
f 11/11/6 9/12/6 13/8/6 15/6/6
f 16/5/5 14/7/5 10/14/5 12/13/5
f 17/1/3 19/4/3 20/3/3 18/2/3
f 19/4/4 23/6/4 24/5/4 20/3/4
f 23/6/1 21/8/1 22/7/1 24/5/1
f 21/8/2 17/10/2 18/9/2 22/7/2
f 19/11/6 17/12/6 21/8/6 23/6/6
f 24/5/5 22/7/5 18/14/5 20/13/5
f 25/1/1 26/2/1 28/3/1 27/4/1
f 27/4/2 28/3/2 32/5/2 31/6/2
f 31/6/3 32/5/3 30/7/3 29/8/3
f 29/8/4 30/7/4 26/9/4 25/10/4
f 27/11/5 31/6/5 29/8/5 25/12/5
f 32/5/6 28/13/6 26/14/6 30/7/6
f 33/1/3 35/4/3 36/3/3 34/2/3
f 35/4/4 39/6/4 40/5/4 36/3/4
f 39/6/1 37/8/1 38/7/1 40/5/1
f 37/8/2 33/10/2 34/9/2 38/7/2
f 35/11/6 33/12/6 37/8/6 39/6/6
f 40/5/5 38/7/5 34/14/5 36/13/5
f 41/1/1 42/2/1 44/3/1 43/4/1
f 43/4/2 44/3/2 48/5/2 47/6/2
f 47/6/3 48/5/3 46/7/3 45/8/3
f 45/8/4 46/7/4 42/9/4 41/10/4
f 43/11/5 47/6/5 45/8/5 41/12/5
f 48/5/6 44/13/6 42/14/6 46/7/6
f 49/1/1 50/2/1 52/3/1 51/4/1
f 51/4/2 52/3/2 56/5/2 55/6/2
f 55/6/3 56/5/3 54/7/3 53/8/3
f 53/8/4 54/7/4 50/9/4 49/10/4
f 51/11/5 55/6/5 53/8/5 49/12/5
f 56/5/6 52/13/6 50/14/6 54/7/6
f 57/1/3 59/4/3 60/3/3 58/2/3
f 59/4/4 63/6/4 64/5/4 60/3/4
f 63/6/1 61/8/1 62/7/1 64/5/1
f 61/8/2 57/10/2 58/9/2 62/7/2
f 59/11/6 57/12/6 61/8/6 63/6/6
f 64/5/5 62/7/5 58/14/5 60/13/5
